<mxfile host="app.diagrams.net" agent="Mozilla/5.0 (X11; Linux x86_64; rv:138.0) Gecko/20100101 Firefox/138.0" version="27.1.4">
  <diagram name="Página-1" id="T3RkfJsf87Fboiarx2ut">
    <mxGraphModel grid="1" page="1" gridSize="10" guides="1" tooltips="1" connect="1" arrows="1" fold="1" pageScale="1" pageWidth="1169" pageHeight="827" math="0" shadow="0">
      <root>
        <mxCell id="0" />
        <mxCell id="1" parent="0" />
        <mxCell id="ulH0g3H_cA99wyb7SrvT-35" style="rounded=0;orthogonalLoop=1;jettySize=auto;html=1;entryX=0;entryY=0.5;entryDx=0;entryDy=0;endArrow=none;startFill=0;strokeWidth=2;" edge="1" parent="1" source="dt3xD9oM9va3JETjDqA0-1" target="ulH0g3H_cA99wyb7SrvT-15">
          <mxGeometry relative="1" as="geometry" />
        </mxCell>
        <mxCell id="dt3xD9oM9va3JETjDqA0-1" value="&lt;b&gt;Usuário&lt;/b&gt;" style="shape=umlActor;verticalLabelPosition=bottom;verticalAlign=top;html=1;strokeWidth=2;" vertex="1" parent="1">
          <mxGeometry x="110" y="447.90000000000003" width="30" height="60" as="geometry" />
        </mxCell>
        <mxCell id="dt3xD9oM9va3JETjDqA0-2" value="Comprar Passagens" style="shape=umlFrame;whiteSpace=wrap;html=1;pointerEvents=0;width=136;height=30;strokeWidth=2;fontStyle=1" vertex="1" parent="1">
          <mxGeometry x="180" y="220" width="700" height="500" as="geometry" />
        </mxCell>
        <mxCell id="ulH0g3H_cA99wyb7SrvT-6" value="API de Pagamentos" style="shape=umlActor;verticalLabelPosition=bottom;verticalAlign=top;html=1;fontStyle=1;strokeWidth=2;" vertex="1" parent="1">
          <mxGeometry x="930" y="441.06" width="30" height="60" as="geometry" />
        </mxCell>
        <mxCell id="ulH0g3H_cA99wyb7SrvT-19" style="rounded=0;orthogonalLoop=1;jettySize=auto;html=1;exitX=0.5;exitY=0;exitDx=0;exitDy=0;dashed=1;endArrow=open;endFill=0;strokeWidth=2;" edge="1" parent="1" source="ulH0g3H_cA99wyb7SrvT-15" target="ulH0g3H_cA99wyb7SrvT-14">
          <mxGeometry relative="1" as="geometry">
            <mxPoint x="420.0663542606369" y="425.4047471321235" as="sourcePoint" />
            <mxPoint x="529.0706257248971" y="356.76499959438866" as="targetPoint" />
          </mxGeometry>
        </mxCell>
        <mxCell id="ulH0g3H_cA99wyb7SrvT-21" value="&lt;font style=&quot;font-size: 13px;&quot;&gt;&amp;lt;&amp;lt;include&amp;gt;&amp;gt;&lt;/font&gt;" style="edgeLabel;html=1;align=center;verticalAlign=middle;resizable=0;points=[];container=0;fontStyle=1" connectable="0" vertex="1" parent="ulH0g3H_cA99wyb7SrvT-19">
          <mxGeometry x="-0.0113" y="-1" relative="1" as="geometry">
            <mxPoint as="offset" />
          </mxGeometry>
        </mxCell>
        <mxCell id="ulH0g3H_cA99wyb7SrvT-14" value="&lt;font style=&quot;font-size: 14px;&quot;&gt;Adicionar dados do passageiro&lt;/font&gt;" style="ellipse;whiteSpace=wrap;html=1;container=0;strokeWidth=2;fontStyle=1" vertex="1" parent="1">
          <mxGeometry x="290" y="280" width="140" height="73.68" as="geometry" />
        </mxCell>
        <mxCell id="ulH0g3H_cA99wyb7SrvT-42" style="rounded=0;orthogonalLoop=1;jettySize=auto;html=1;dashed=1;entryX=0.307;entryY=0.976;entryDx=0;entryDy=0;endArrow=open;endFill=0;strokeWidth=2;entryPerimeter=0;" edge="1" parent="1" source="ulH0g3H_cA99wyb7SrvT-17" target="ulH0g3H_cA99wyb7SrvT-28">
          <mxGeometry relative="1" as="geometry">
            <mxPoint x="523.5621301566837" y="598.622935346485" as="sourcePoint" />
          </mxGeometry>
        </mxCell>
        <mxCell id="ulH0g3H_cA99wyb7SrvT-43" value="&lt;font style=&quot;font-size: 13px;&quot;&gt;&amp;lt;&amp;lt;extend&amp;gt;&amp;gt;&lt;/font&gt;" style="edgeLabel;html=1;align=center;verticalAlign=middle;resizable=0;points=[];container=0;fontStyle=1" connectable="0" vertex="1" parent="ulH0g3H_cA99wyb7SrvT-42">
          <mxGeometry x="-0.0198" y="1" relative="1" as="geometry">
            <mxPoint x="1" as="offset" />
          </mxGeometry>
        </mxCell>
        <mxCell id="ulH0g3H_cA99wyb7SrvT-17" value="&lt;font style=&quot;font-size: 14px;&quot;&gt;Emitir Passagem&lt;/font&gt;" style="ellipse;whiteSpace=wrap;html=1;container=0;strokeWidth=2;fontStyle=1" vertex="1" parent="1">
          <mxGeometry x="600" y="590" width="110" height="80" as="geometry" />
        </mxCell>
        <mxCell id="ulH0g3H_cA99wyb7SrvT-28" value="&lt;font style=&quot;font-size: 14px;&quot;&gt;Processar Pagamento&lt;/font&gt;" style="ellipse;whiteSpace=wrap;html=1;container=0;strokeWidth=2;fontStyle=1" vertex="1" parent="1">
          <mxGeometry x="690" y="441.06" width="140" height="73.68421052631578" as="geometry" />
        </mxCell>
        <mxCell id="ulH0g3H_cA99wyb7SrvT-34" style="rounded=0;orthogonalLoop=1;jettySize=auto;html=1;entryX=0.993;entryY=0.442;entryDx=0;entryDy=0;entryPerimeter=0;endArrow=none;startFill=0;strokeWidth=2;" edge="1" parent="1" source="ulH0g3H_cA99wyb7SrvT-6" target="ulH0g3H_cA99wyb7SrvT-28">
          <mxGeometry relative="1" as="geometry" />
        </mxCell>
        <mxCell id="ulH0g3H_cA99wyb7SrvT-15" value="&lt;font style=&quot;font-size: 16px;&quot;&gt;Efetuar Pagamento&lt;/font&gt;" style="ellipse;whiteSpace=wrap;html=1;container=0;strokeWidth=2;fontStyle=1" vertex="1" parent="1">
          <mxGeometry x="340" y="430" width="180" height="84.73" as="geometry" />
        </mxCell>
        <mxCell id="ulH0g3H_cA99wyb7SrvT-26" style="edgeStyle=orthogonalEdgeStyle;rounded=0;orthogonalLoop=1;jettySize=auto;html=1;exitX=0.5;exitY=1;exitDx=0;exitDy=0;" edge="1" parent="1" source="ulH0g3H_cA99wyb7SrvT-15" target="ulH0g3H_cA99wyb7SrvT-15">
          <mxGeometry relative="1" as="geometry" />
        </mxCell>
        <mxCell id="r_3aXv1MTDF9AzbCDI2V-4" value="&lt;font style=&quot;font-size: 14px;&quot;&gt;Pagar com Pix&lt;/font&gt;" style="ellipse;whiteSpace=wrap;html=1;container=0;strokeWidth=2;fontStyle=1" vertex="1" parent="1">
          <mxGeometry x="240" y="530" width="80" height="60" as="geometry" />
        </mxCell>
        <mxCell id="r_3aXv1MTDF9AzbCDI2V-6" value="&lt;font style=&quot;font-size: 14px;&quot;&gt;Pagar com Cartão&lt;/font&gt;" style="ellipse;whiteSpace=wrap;html=1;container=0;strokeWidth=2;fontStyle=1" vertex="1" parent="1">
          <mxGeometry x="410" y="610" width="110" height="60" as="geometry" />
        </mxCell>
        <mxCell id="r_3aXv1MTDF9AzbCDI2V-13" value="&lt;font style=&quot;font-size: 13px;&quot;&gt;&amp;lt;&amp;lt;include&amp;gt;&amp;gt;&lt;/font&gt;" style="rounded=0;orthogonalLoop=1;jettySize=auto;html=1;dashed=1;exitX=0.997;exitY=0.64;exitDx=0;exitDy=0;exitPerimeter=0;endArrow=open;endFill=0;strokeWidth=2;fontStyle=1" edge="1" parent="1" source="ulH0g3H_cA99wyb7SrvT-15" target="ulH0g3H_cA99wyb7SrvT-28">
          <mxGeometry relative="1" as="geometry" />
        </mxCell>
        <mxCell id="vvXf4pxppu9mLRybO2vo-1" style="rounded=0;orthogonalLoop=1;jettySize=auto;html=1;dashed=1;entryX=0.5;entryY=1;entryDx=0;entryDy=0;exitX=0.592;exitY=-0.025;exitDx=0;exitDy=0;exitPerimeter=0;endArrow=open;endFill=0;strokeWidth=2;" edge="1" parent="1" source="r_3aXv1MTDF9AzbCDI2V-6" target="ulH0g3H_cA99wyb7SrvT-15">
          <mxGeometry relative="1" as="geometry">
            <mxPoint x="623" y="621" as="sourcePoint" />
            <mxPoint x="460" y="560" as="targetPoint" />
          </mxGeometry>
        </mxCell>
        <mxCell id="vvXf4pxppu9mLRybO2vo-2" value="&lt;font style=&quot;font-size: 13px;&quot;&gt;&amp;lt;&amp;lt;extend&amp;gt;&amp;gt;&lt;/font&gt;" style="edgeLabel;html=1;align=center;verticalAlign=middle;resizable=0;points=[];container=0;fontStyle=1" connectable="0" vertex="1" parent="vvXf4pxppu9mLRybO2vo-1">
          <mxGeometry x="-0.0198" y="1" relative="1" as="geometry">
            <mxPoint x="1" as="offset" />
          </mxGeometry>
        </mxCell>
        <mxCell id="vvXf4pxppu9mLRybO2vo-3" style="rounded=0;orthogonalLoop=1;jettySize=auto;html=1;dashed=1;entryX=0.193;entryY=0.927;entryDx=0;entryDy=0;entryPerimeter=0;exitX=1;exitY=0;exitDx=0;exitDy=0;endArrow=open;endFill=0;strokeWidth=2;" edge="1" parent="1" source="r_3aXv1MTDF9AzbCDI2V-4" target="ulH0g3H_cA99wyb7SrvT-15">
          <mxGeometry relative="1" as="geometry">
            <mxPoint x="653" y="651" as="sourcePoint" />
            <mxPoint x="490" y="590" as="targetPoint" />
          </mxGeometry>
        </mxCell>
        <mxCell id="vvXf4pxppu9mLRybO2vo-4" value="&lt;font style=&quot;font-size: 13px;&quot;&gt;&amp;lt;&amp;lt;extend&amp;gt;&amp;gt;&lt;/font&gt;" style="edgeLabel;html=1;align=center;verticalAlign=middle;resizable=0;points=[];container=0;fontStyle=1" connectable="0" vertex="1" parent="vvXf4pxppu9mLRybO2vo-3">
          <mxGeometry x="-0.0198" y="1" relative="1" as="geometry">
            <mxPoint x="1" as="offset" />
          </mxGeometry>
        </mxCell>
        <mxCell id="vvXf4pxppu9mLRybO2vo-5" value="&lt;font style=&quot;font-size: 14px;&quot;&gt;Cancelar compra&lt;/font&gt;" style="ellipse;whiteSpace=wrap;html=1;container=0;strokeWidth=2;fontStyle=1" vertex="1" parent="1">
          <mxGeometry x="565" y="330" width="125" height="57.37" as="geometry" />
        </mxCell>
        <mxCell id="vvXf4pxppu9mLRybO2vo-6" style="rounded=0;orthogonalLoop=1;jettySize=auto;html=1;dashed=1;entryX=0.357;entryY=-0.014;entryDx=0;entryDy=0;entryPerimeter=0;endArrow=open;endFill=0;strokeWidth=2;" edge="1" parent="1" source="vvXf4pxppu9mLRybO2vo-5" target="ulH0g3H_cA99wyb7SrvT-28">
          <mxGeometry relative="1" as="geometry">
            <mxPoint x="703" y="392" as="sourcePoint" />
            <mxPoint x="457" y="250" as="targetPoint" />
          </mxGeometry>
        </mxCell>
        <mxCell id="vvXf4pxppu9mLRybO2vo-7" value="&lt;font style=&quot;font-size: 13px;&quot;&gt;&amp;lt;&amp;lt;extend&amp;gt;&amp;gt;&lt;/font&gt;" style="edgeLabel;html=1;align=center;verticalAlign=middle;resizable=0;points=[];container=0;fontStyle=1" connectable="0" vertex="1" parent="vvXf4pxppu9mLRybO2vo-6">
          <mxGeometry x="-0.0198" y="1" relative="1" as="geometry">
            <mxPoint x="1" as="offset" />
          </mxGeometry>
        </mxCell>
        <mxCell id="shJLO6jMUztBuS1swwu1-1" value="Usuário deve estar logado" style="shape=note;whiteSpace=wrap;html=1;backgroundOutline=1;darkOpacity=0.05;" vertex="1" parent="1">
          <mxGeometry x="730" y="250" width="100" height="80" as="geometry" />
        </mxCell>
        <mxCell id="qZ9LVoJY87vO7o0o3qVi-1" value="Gerar qrcode" style="ellipse;whiteSpace=wrap;html=1;container=0;strokeWidth=2;fontStyle=1" vertex="1" parent="1">
          <mxGeometry x="290" y="640" width="70" height="60" as="geometry" />
        </mxCell>
        <mxCell id="qZ9LVoJY87vO7o0o3qVi-2" style="rounded=0;orthogonalLoop=1;jettySize=auto;html=1;exitX=0.713;exitY=1;exitDx=0;exitDy=0;dashed=1;endArrow=open;endFill=0;strokeWidth=2;exitPerimeter=0;" edge="1" parent="1" source="r_3aXv1MTDF9AzbCDI2V-4" target="qZ9LVoJY87vO7o0o3qVi-1">
          <mxGeometry relative="1" as="geometry">
            <mxPoint x="438" y="448" as="sourcePoint" />
            <mxPoint x="390" y="370" as="targetPoint" />
          </mxGeometry>
        </mxCell>
        <mxCell id="qZ9LVoJY87vO7o0o3qVi-3" value="&lt;font style=&quot;font-size: 13px;&quot;&gt;&amp;lt;&amp;lt;include&amp;gt;&amp;gt;&lt;/font&gt;" style="edgeLabel;html=1;align=center;verticalAlign=middle;resizable=0;points=[];container=0;fontStyle=1" connectable="0" vertex="1" parent="qZ9LVoJY87vO7o0o3qVi-2">
          <mxGeometry x="-0.0113" y="-1" relative="1" as="geometry">
            <mxPoint as="offset" />
          </mxGeometry>
        </mxCell>
      </root>
    </mxGraphModel>
  </diagram>
</mxfile>
